<svg xmlns="http://www.w3.org/2000/svg" width="67.22" height="149.27" viewBox="0 0 67.22 149.27"><defs><style>.a{fill:#ffd21d;}.b{fill:#fff;}.c,.d{fill:none;stroke-width:2px;}.c{stroke:#f15c44;stroke-dasharray:1.8 1.8;}.d{stroke:#231f20;}</style></defs><title>bloop_curve</title><path class="a" d="M42.61,137.85S24.47-94,72.59,75.6C24.47-115.61,5.37,137.11,5.37,137.11" transform="translate(-5.37 -4.08)"/><path class="b" d="M13.33,120.27a18,18,0,1,1-2.87,25.3A18,18,0,0,1,13.33,120.27Z" transform="translate(-5.37 -4.08)"/><path class="c" d="M21.48,152.09a18,18,0,0,1,21-16.75" transform="translate(-5.37 -4.08)"/><path class="c" d="M27.46,116.59A18,18,0,0,1,6.57,133.22" transform="translate(-5.37 -4.08)"/><path class="d" d="M13.33,120.27a18,18,0,1,1-2.87,25.3A18,18,0,0,1,13.33,120.27Z" transform="translate(-5.37 -4.08)"/></svg>