<svg xmlns="http://www.w3.org/2000/svg" width="153" height="247.3" viewBox="0 0 153 247.3"><defs><style>.a,.b,.c,.d,.h,.i,.j,.k{fill:none;}.a,.b,.c,.d{stroke:#c8c8c8;}.a{stroke-width:2.24px;}.c{stroke-width:0.8px;}.d,.h,.i{stroke-width:2px;}.e{fill:#c8c8c8;}.f{fill:#f68741;}.g{fill:#fff;}.h{stroke:#f15c44;stroke-dasharray:1.8 1.8;}.i,.k{stroke:#231f20;}.j{stroke:#f99f22;stroke-width:1.5px;}.k{stroke-width:0.68px;}</style></defs><title>changeup</title><rect class="a" x="4.73" y="1.12" width="145.8" height="178.2"/><line class="b" x1="4.73" y1="119.89" x2="150.53" y2="119.89"/><line class="b" x1="4.73" y1="60.55" x2="150.53" y2="60.55"/><line class="b" x1="101.94" y1="1.12" x2="101.94" y2="179.32"/><line class="b" x1="53.32" y1="1.12" x2="53.32" y2="179.32"/><line class="c" y1="203.1" x2="153" y2="203.1"/><line class="c" x1="153" y1="246.3" y2="246.3"/><line class="c" y1="231.9" x2="153" y2="231.9"/><line class="c" y1="217.51" x2="153" y2="217.51"/><line class="d" y1="246.3" x2="153" y2="246.3"/><path class="e" d="M45.05,290.23c0-3.51-6.95-6.36-15.52-6.36S14,286.72,14,290.23" transform="translate(-9.88 -43.92)"/><polyline class="b" points="136.27 245.53 136.27 242.38 149.35 242.38 149.35 245.53"/><path class="f" d="M106.1,137.85S88,19.39,136.08,75.6C88,3.64,68.86,137.11,68.86,137.11" transform="translate(-9.88 -43.92)"/><path class="g" d="M75.25,121.68a18,18,0,1,1,.1,25.45A18,18,0,0,1,75.25,121.68Z" transform="translate(-9.88 -43.92)"/><path class="h" d="M87.05,152.33A18,18,0,0,1,106,133.24" transform="translate(-9.88 -43.92)"/><path class="h" d="M88.86,116.37a18,18,0,0,1-18.8,18.95" transform="translate(-9.88 -43.92)"/><path class="i" d="M75.25,121.68a18,18,0,1,1,.1,25.45A18,18,0,0,1,75.25,121.68Z" transform="translate(-9.88 -43.92)"/><path class="j" d="M26.58,263.23c1.89-.42,97.88-20.48,126.37,5.56" transform="translate(-9.88 -43.92)"/><path class="g" d="M155.68,270.49a2.25,2.25,0,1,1-.34-3.16A2.24,2.24,0,0,1,155.68,270.49Z" transform="translate(-9.88 -43.92)"/><path class="k" d="M155.68,270.49a2.25,2.25,0,1,1-.34-3.16A2.24,2.24,0,0,1,155.68,270.49Z" transform="translate(-9.88 -43.92)"/></svg>