<svg xmlns="http://www.w3.org/2000/svg" width="153" height="247.3" viewBox="0 0 153 247.3"><defs><style>.a,.b,.c,.d,.h,.i,.j,.k{fill:none;}.a,.b,.c,.d{stroke:#c8c8c8;}.a{stroke-width:2.24px;}.c{stroke-width:0.8px;}.d,.h,.i{stroke-width:2px;}.e{fill:#c8c8c8;}.f{fill:#f68726;}.g{fill:#fff;}.h{stroke:#f15c44;stroke-dasharray:1.8 1.8;}.i,.k{stroke:#231f20;}.j{stroke:#f99f22;stroke-width:1.5px;}.k{stroke-width:0.68px;}</style></defs><title>circle_change</title><rect class="a" x="4.73" y="1.12" width="145.8" height="178.2"/><line class="b" x1="4.73" y1="119.89" x2="150.53" y2="119.89"/><line class="b" x1="4.73" y1="60.55" x2="150.53" y2="60.55"/><line class="b" x1="101.94" y1="1.12" x2="101.94" y2="179.32"/><line class="b" x1="53.32" y1="1.12" x2="53.32" y2="179.32"/><line class="c" y1="203.1" x2="153" y2="203.1"/><line class="c" x1="153" y1="246.3" y2="246.3"/><line class="c" y1="231.9" x2="153" y2="231.9"/><line class="c" y1="217.51" x2="153" y2="217.51"/><line class="d" y1="246.3" x2="153" y2="246.3"/><path class="e" d="M45.05,290.23c0-3.51-6.95-6.36-15.52-6.36S14,286.72,14,290.23" transform="translate(-9.88 -43.92)"/><polyline class="b" points="136.27 245.53 136.27 242.38 149.35 242.38 149.35 245.53"/><path class="f" d="M52.1,177.45C92,151.69,88,24.34,136.08,75.6,88,11.29,79.86,114.79,29.26,149.71" transform="translate(-9.88 -43.92)"/><path class="g" d="M61,160.17a18,18,0,1,1-19.14-16.78A18,18,0,0,1,61,160.17Z" transform="translate(-9.88 -43.92)"/><path class="h" d="M30.2,148.72A18,18,0,0,1,32,175.55" transform="translate(-9.88 -43.92)"/><path class="h" d="M56,173.88a18,18,0,0,1-1.75-26.63" transform="translate(-9.88 -43.92)"/><path class="i" d="M61,160.17a18,18,0,1,1-19.14-16.78A18,18,0,0,1,61,160.17Z" transform="translate(-9.88 -43.92)"/><path class="j" d="M26.58,263.23s97.88-21.6,126.37,8.26" transform="translate(-9.88 -43.92)"/><path class="g" d="M155.68,274.09a2.25,2.25,0,1,1-.34-3.16A2.24,2.24,0,0,1,155.68,274.09Z" transform="translate(-9.88 -43.92)"/><path class="k" d="M155.68,274.09a2.25,2.25,0,1,1-.34-3.16A2.24,2.24,0,0,1,155.68,274.09Z" transform="translate(-9.88 -43.92)"/></svg>