<svg xmlns="http://www.w3.org/2000/svg" width="153" height="247.49" viewBox="0 0 153 247.49"><defs><style>.a,.b,.c,.d,.h,.i,.j,.k{fill:none;}.a,.b,.c,.d{stroke:#c8c8c8;}.a{stroke-width:2.24px;}.c{stroke-width:0.8px;}.d,.h,.i{stroke-width:2px;}.e{fill:#c8c8c8;}.f{fill:#f99f22;}.g{fill:#fff;}.h{stroke:#f15c44;stroke-dasharray:1.8 1.8;}.i,.k{stroke:#231f20;}.j{stroke:#f99f22;stroke-width:1.5px;}.k{stroke-width:0.68px;}</style></defs><title>palmball</title><rect class="a" x="4.73" y="1.31" width="145.8" height="178.2"/><line class="b" x1="4.73" y1="120.08" x2="150.53" y2="120.08"/><line class="b" x1="4.73" y1="60.73" x2="150.53" y2="60.73"/><line class="b" x1="101.94" y1="1.31" x2="101.94" y2="179.51"/><line class="b" x1="53.32" y1="1.31" x2="53.32" y2="179.51"/><line class="c" y1="203.29" x2="153" y2="203.29"/><line class="c" x1="153" y1="246.49" y2="246.49"/><line class="c" y1="232.08" x2="153" y2="232.08"/><line class="c" y1="217.7" x2="153" y2="217.7"/><line class="d" y1="246.49" x2="153" y2="246.49"/><path class="e" d="M45.05,290.23c0-3.51-6.95-6.36-15.52-6.36S14,286.72,14,290.23" transform="translate(-9.88 -43.74)"/><polyline class="b" points="136.27 245.71 136.27 242.56 149.35 242.56 149.35 245.71"/><path class="f" d="M106.1,137.85S88-3.56,136.08,75.6C88-22.46,68.86,137.11,68.86,137.11" transform="translate(-9.88 -43.74)"/><path class="g" d="M98.93,148.68a18,18,0,1,1,3.43-25.22A18,18,0,0,1,98.93,148.68Z" transform="translate(-9.88 -43.74)"/><path class="h" d="M91.48,116.69A18,18,0,0,1,70.08,133" transform="translate(-9.88 -43.74)"/><path class="h" d="M84.72,152.05A18,18,0,0,1,106,135.89" transform="translate(-9.88 -43.74)"/><path class="i" d="M98.93,148.68a18,18,0,1,1,3.43-25.22A18,18,0,0,1,98.93,148.68Z" transform="translate(-9.88 -43.74)"/><path class="j" d="M26.58,263.23s97.88-28.35,126.37,5.56" transform="translate(-9.88 -43.74)"/><path class="g" d="M155.68,270.49a2.25,2.25,0,1,1-.34-3.16A2.24,2.24,0,0,1,155.68,270.49Z" transform="translate(-9.88 -43.74)"/><path class="k" d="M155.68,270.49a2.25,2.25,0,1,1-.34-3.16A2.24,2.24,0,0,1,155.68,270.49Z" transform="translate(-9.88 -43.74)"/></svg>