<svg xmlns="http://www.w3.org/2000/svg" width="168.84" height="135.8" viewBox="0 0 168.84 135.8"><defs><style>.a{fill:#7dc3b4;}.b{fill:#e16414;}.c{fill:#fff;}.d{fill:#333;}.e,.f,.g{fill:none;}.e,.f{stroke:#333;}.e{stroke-width:4.7px;}.f{stroke-width:9.5px;}.g{stroke:#cccbcb;stroke-linecap:round;stroke-width:2.5px;}</style></defs><title>americano</title><rect class="a" x="30.21" y="27.09" width="108.42" height="52.9"/><polygon class="b" points="129.48 107.11 35.81 107.11 30.21 100.14 30.21 79.71 138.63 79.71 138.63 96.91 129.48 107.11"/><path class="c" d="M68.5,99.63H63.78V92.3H68.5v1.19H65.22v1.88H68.3v1.11H65.22v2H68.5Z" transform="translate(-4.58 -3.05)"/><path class="c" d="M70.77,97.55c0,.57.56,1.07,1.52,1.07s1.38-.41,1.38-1-.37-.78-1.13-1l-1.13-.27a2,2,0,0,1-1.86-2c0-1.43,1.23-2.22,2.74-2.22S75,93,75,94.33H73.64c0-.55-.48-1-1.36-1s-1.28.37-1.28,1c0,.44.35.74,1,.88l1.14.27c1.08.23,2,.75,2,2.06s-1.14,2.3-2.91,2.3c-2.13,0-2.82-1.2-2.84-2.22Z" transform="translate(-4.58 -3.05)"/><path class="c" d="M79.25,92.3a2.44,2.44,0,1,1,0,4.87H77.77v2.46H76.31V92.3ZM77.76,96h.87c1,0,1.62-.29,1.62-1.28A1.17,1.17,0,0,0,79,93.46H77.76Z" transform="translate(-4.58 -3.05)"/><path class="c" d="M88.24,94.62a2.15,2.15,0,0,1-1.33,2.06l1.47,2.95H86.76L85.48,96.9H84.17v2.73H82.74V92.3h2.93A2.27,2.27,0,0,1,88.24,94.62Zm-2.8,1.19c.82,0,1.3-.4,1.3-1.16a1.14,1.14,0,0,0-1.28-1.21H84.17v2.37Z" transform="translate(-4.58 -3.05)"/><path class="c" d="M94.23,99.63H89.51V92.3h4.72v1.19H91v1.88H94v1.11H91v2h3.28Z" transform="translate(-4.58 -3.05)"/><path class="c" d="M96.5,97.55c0,.57.56,1.07,1.52,1.07s1.38-.41,1.38-1-.37-.78-1.12-1l-1.14-.27a2,2,0,0,1-1.86-2c0-1.43,1.23-2.22,2.74-2.22s2.7.86,2.72,2.18H99.38a1.21,1.21,0,0,0-1.37-1c-.78,0-1.27.37-1.27,1,0,.44.34.74,1,.88l1.14.27c1.08.23,2,.75,2,2.06s-1.14,2.3-2.91,2.3c-2.12,0-2.82-1.2-2.84-2.22Z" transform="translate(-4.58 -3.05)"/><path class="c" d="M103,97.55c.05.57.56,1.07,1.52,1.07s1.38-.41,1.38-1-.37-.78-1.13-1l-1.13-.27a2,2,0,0,1-1.86-2c0-1.43,1.22-2.22,2.73-2.22s2.7.86,2.73,2.18h-1.37a1.2,1.2,0,0,0-1.36-1c-.78,0-1.28.37-1.28,1,0,.44.34.74,1,.88l1.14.27c1.09.23,2,.75,2,2.06s-1.14,2.3-2.9,2.3c-2.13,0-2.82-1.2-2.84-2.22Z" transform="translate(-4.58 -3.05)"/><path class="c" d="M108.23,95.52c0-2.08,1.2-3.36,3.15-3.36s3.14,1.29,3.14,3.36v.94a3.15,3.15,0,1,1-6.29,0Zm1.48,1c0,1.41.7,2.09,1.67,2.09s1.67-.68,1.67-2.09v-1c0-1.41-.7-2.14-1.67-2.14s-1.67.73-1.67,2.14Z" transform="translate(-4.58 -3.05)"/><path class="c" d="M74,61.3,72.07,54h1.54l1.14,5.23h.06L76.11,54h1.25l1.3,5.23h.06L79.85,54h1.54L79.45,61.3H78.12l-1.36-5.08h-.05L75.35,61.3Z" transform="translate(-4.58 -3.05)"/><path class="c" d="M81.18,61.3,83.64,54h1.71l2.44,7.33H86.25l-.58-1.89H83.23l-.58,1.89Zm3.25-5.93-.9,3h1.85l-.89-3Z" transform="translate(-4.58 -3.05)"/><path class="c" d="M89.52,61.3V55.18H87.44V54h5.62v1.21H91V61.3Z" transform="translate(-4.58 -3.05)"/><path class="c" d="M98.64,61.3H93.92V54h4.72v1.19H95.36V57h3.08v1.11H95.36v2h3.28Z" transform="translate(-4.58 -3.05)"/><path class="c" d="M105.47,56.29a2.16,2.16,0,0,1-1.34,2.06l1.48,2.95H104l-1.29-2.73h-1.3V61.3H100V54h2.93A2.26,2.26,0,0,1,105.47,56.29Zm-2.8,1.19c.81,0,1.3-.41,1.3-1.16a1.14,1.14,0,0,0-1.28-1.21H101.4v2.37Z" transform="translate(-4.58 -3.05)"/><path class="d" d="M131.31,138.84H46.69c-17.42,0-42.11-25.44-42.11-25.44H173.42S149.25,138.84,131.31,138.84Z" transform="translate(-4.58 -3.05)"/><path class="e" d="M33.35,95.19v-65H144.22V94.9c0,11.85-10.6,16.48-15.41,16.48H48.75C42,111.38,33.35,108.77,33.35,95.19Z" transform="translate(-4.58 -3.05)"/><path class="f" d="M144,68.56h5.6a18.06,18.06,0,1,0,0-36.11h-5.35" transform="translate(-4.58 -3.05)"/><path class="g" d="M79.48,22.5c1.32.61-4.5-3.05-4.5-6.07s4.5-3.74,4.5-7S76.21,4.94,75,4.3" transform="translate(-4.58 -3.05)"/><path class="g" d="M89.18,22.5c1.31.61-4.5-3.05-4.5-6.07s4.5-3.74,4.5-7-3.27-4.5-4.5-5.14" transform="translate(-4.58 -3.05)"/><path class="g" d="M98.88,22.5c1.31.61-4.5-3.05-4.5-6.07s4.5-3.74,4.5-7-3.28-4.5-4.5-5.14" transform="translate(-4.58 -3.05)"/></svg>