<svg xmlns="http://www.w3.org/2000/svg" width="168.84" height="135.8" viewBox="0 0 168.84 135.8"><defs><style>.a{fill:#7dc3b4;}.b{fill:#e16414;}.c{font-size:11px;fill:#fff;font-family:SFCompactDisplay-Semibold, SF Compact Display;font-weight:600;}.d{letter-spacing:-0.03em;}.e{letter-spacing:-0.05em;}.f{fill:#333;}.g,.h,.i{fill:none;}.g,.h{stroke:#333;}.g{stroke-width:4.7px;}.h{stroke-width:9.5px;}.i{stroke:#cccbcb;stroke-linecap:round;stroke-width:2.5px;}</style></defs><title>americano</title><rect class="a" x="30.21" y="27.09" width="108.42" height="52.9"/><polygon class="b" points="129.48 107.11 35.81 107.11 30.21 100.14 30.21 79.71 138.63 79.71 138.63 96.91 129.48 107.11"/><text class="c" transform="translate(58.42 96.59)">ESPRESSO</text><text class="c" transform="translate(67.46 58.25)"><tspan class="d">W</tspan><tspan class="e" x="9.06" y="0">A</tspan><tspan x="15.32" y="0">TER</tspan></text><path class="f" d="M131.31,138.84H46.69c-17.42,0-42.11-25.44-42.11-25.44H173.42S149.25,138.84,131.31,138.84Z" transform="translate(-4.58 -3.05)"/><path class="g" d="M33.35,95.19v-65H144.22V94.9c0,11.85-10.6,16.48-15.41,16.48H48.75C42,111.38,33.35,108.77,33.35,95.19Z" transform="translate(-4.58 -3.05)"/><path class="h" d="M144,68.56h5.6a18.06,18.06,0,1,0,0-36.11h-5.35" transform="translate(-4.58 -3.05)"/><path class="i" d="M79.48,22.5c1.32.61-4.5-3.05-4.5-6.07s4.5-3.74,4.5-7S76.21,4.94,75,4.3" transform="translate(-4.58 -3.05)"/><path class="i" d="M89.18,22.5c1.31.61-4.5-3.05-4.5-6.07s4.5-3.74,4.5-7-3.27-4.5-4.5-5.14" transform="translate(-4.58 -3.05)"/><path class="i" d="M98.88,22.5c1.31.61-4.5-3.05-4.5-6.07s4.5-3.74,4.5-7-3.28-4.5-4.5-5.14" transform="translate(-4.58 -3.05)"/></svg>