<svg xmlns="http://www.w3.org/2000/svg" width="168.84" height="135.8" viewBox="0 0 168.84 135.8"><defs><style>.a{fill:#c8dcb4;}.b{fill:#b4be8c;}.c{fill:#fff;}.d{fill:#e16414;}.e{fill:#333;}.f,.g,.h{fill:none;}.f,.g{stroke:#333;}.f{stroke-width:4.7px;}.g{stroke-width:9.5px;}.h{stroke:#cccbcb;stroke-linecap:round;stroke-width:2.5px;}</style></defs><title>coffeeeeeeeeee</title><rect class="a" x="30.21" y="28.72" width="108.42" height="25.28"/><rect class="b" x="30.21" y="44.45" width="108.42" height="35.13"/><path class="c" d="M67.2,61c0,.57.56,1.07,1.52,1.07s1.38-.41,1.38-1-.37-.78-1.13-1l-1.13-.27a2,2,0,0,1-1.86-2c0-1.43,1.23-2.22,2.74-2.22s2.7.86,2.72,2.17H70.07c0-.54-.48-1-1.36-1s-1.28.37-1.28,1c0,.44.35.74,1,.88l1.14.26c1.08.24,2,.76,2,2.07s-1.14,2.3-2.91,2.3c-2.13,0-2.82-1.2-2.84-2.22Z" transform="translate(-4.58 -3.05)"/><path class="c" d="M74.13,63V56.92H72.05V55.71h5.61v1.21H75.58V63Z" transform="translate(-4.58 -3.05)"/><path class="c" d="M83.24,63H78.52V55.71h4.72V56.9H80v1.88h3.09v1.11H80v2h3.28Z" transform="translate(-4.58 -3.05)"/><path class="c" d="M83.88,63l2.46-7.33H88L90.48,63H88.94l-.57-1.88H85.92L85.34,63Zm3.24-5.93-.89,3h1.85l-.89-3Z" transform="translate(-4.58 -3.05)"/><path class="c" d="M91.37,63V55.71h1.47l2.09,4.73h0l2.09-4.73h1.47V63H97.23V58.2h-.06l-1.75,3.92h-.94L92.72,58.2h-.06V63Z" transform="translate(-4.58 -3.05)"/><path class="c" d="M104.83,63h-4.72V55.71h4.72V56.9h-3.28v1.88h3.08v1.11h-3.08v2h3.28Z" transform="translate(-4.58 -3.05)"/><path class="c" d="M108.84,55.71c2.23,0,3.28,1.33,3.28,3.65S111.05,63,108.84,63h-2.68V55.71Zm-1.23,6.14h1c1.22,0,2-.61,2-2.47,0-1.51-.53-2.48-2-2.48h-1Z" transform="translate(-4.58 -3.05)"/><path class="c" d="M54,76.24V73.1H51v3.14H49.5V68.91H51v3H54v-3h1.45v7.33Z" transform="translate(-4.58 -3.05)"/><path class="c" d="M56.34,76.24l2.46-7.33h1.7L63,76.24H61.41l-.58-1.88H58.39l-.58,1.88Zm3.25-5.93-.9,3h1.85l-.89-3Z" transform="translate(-4.58 -3.05)"/><path class="c" d="M68.37,76.24H63.81V68.91h1.45V75h3.11Z" transform="translate(-4.58 -3.05)"/><path class="c" d="M69.31,76.24V68.91H74v1.2H70.76v2H73.7v1.18H70.76v2.91Z" transform="translate(-4.58 -3.05)"/><path class="c" d="M74.69,73.13V71.87h3.39v1.26Z" transform="translate(-4.58 -3.05)"/><path class="c" d="M78.26,76.24l2.46-7.33h1.7l2.44,7.33H83.32l-.57-1.88H80.3l-.58,1.88Zm3.24-5.93-.9,3h1.86l-.9-3Z" transform="translate(-4.58 -3.05)"/><path class="c" d="M85.73,76.24V68.91h1.21l3.24,4.88h0V68.91h1.36v7.33H90.38l-3.26-4.9h0v4.9Z" transform="translate(-4.58 -3.05)"/><path class="c" d="M95.82,68.91c2.23,0,3.28,1.33,3.28,3.65S98,76.24,95.82,76.24H93.14V68.91Zm-1.23,6.14h1c1.21,0,2-.61,2-2.47,0-1.51-.52-2.48-2-2.48h-1Z" transform="translate(-4.58 -3.05)"/><path class="c" d="M99.92,73.13V71.87h3.39v1.26Z" transform="translate(-4.58 -3.05)"/><path class="c" d="M109,76.24V73.1H106v3.14h-1.45V68.91H106v3H109v-3h1.45v7.33Z" transform="translate(-4.58 -3.05)"/><path class="c" d="M111.35,76.24l2.46-7.33h1.7L118,76.24h-1.54l-.58-1.88H113.4l-.58,1.88Zm3.25-5.93-.9,3h1.85l-.89-3Z" transform="translate(-4.58 -3.05)"/><path class="c" d="M123.38,76.24h-4.56V68.91h1.45V75h3.11Z" transform="translate(-4.58 -3.05)"/><path class="c" d="M124.32,76.24V68.91H129v1.2h-3.22v2h2.94v1.18h-2.94v2.91Z" transform="translate(-4.58 -3.05)"/><path class="c" d="M62.5,43.78V36.45H64l2.09,4.73h0l2.1-4.73h1.46v7.33h-1.3V38.94h-.06l-1.75,3.92h-1l-1.75-3.92H63.8v4.84Z" transform="translate(-4.58 -3.05)"/><path class="c" d="M71.25,43.78V36.45H72.7v7.33Z" transform="translate(-4.58 -3.05)"/><path class="c" d="M78.82,43.78H74.26V36.45h1.45v6.09h3.11Z" transform="translate(-4.58 -3.05)"/><path class="c" d="M83,39.61l2.73,4.17H84l-2-3.21-.75.86v2.35H79.75V36.45H81.2v3.28h.07L84,36.45h1.6Z" transform="translate(-4.58 -3.05)"/><path class="c" d="M88.67,43.78V36.45h4.67v1.2H90.12v2h2.95v1.17H90.12v2.92Z" transform="translate(-4.58 -3.05)"/><path class="c" d="M94.12,39.67c0-2.08,1.19-3.36,3.15-3.36s3.13,1.29,3.13,3.36v.94a3,3,0,0,1-3.15,3.31c-2,0-3.13-1.24-3.13-3.31Zm1.48.95c0,1.41.69,2.09,1.66,2.09s1.67-.68,1.67-2.09v-1c0-1.41-.7-2.14-1.67-2.14s-1.66.73-1.66,2.14Z" transform="translate(-4.58 -3.05)"/><path class="c" d="M100.84,43.78l2.46-7.33H105l2.44,7.33H105.9l-.57-1.88h-2.45l-.58,1.88Zm3.24-5.93-.9,3H105l-.89-3Z" transform="translate(-4.58 -3.05)"/><path class="c" d="M108.33,43.78V36.45h1.47l2.09,4.73h0l2.1-4.73h1.47v7.33h-1.31V38.94h-.06l-1.75,3.92h-.95l-1.75-3.92h-.06v4.84Z" transform="translate(-4.58 -3.05)"/><polygon class="d" points="129.48 106.7 35.81 106.7 30.21 99.72 30.21 79.29 138.63 79.29 138.63 96.49 129.48 106.7"/><path class="c" d="M68.5,99.07H63.78V91.73H68.5v1.19H65.22V94.8H68.3v1.11H65.22v2H68.5Z" transform="translate(-4.58 -3.05)"/><path class="c" d="M70.77,97c0,.57.56,1.08,1.52,1.08s1.38-.41,1.38-1-.37-.78-1.13-1l-1.13-.26a2.05,2.05,0,0,1-1.86-2c0-1.43,1.23-2.22,2.74-2.22s2.7.86,2.72,2.18H73.64c0-.55-.48-1-1.36-1s-1.28.37-1.28,1c0,.44.35.74,1,.89l1.14.26c1.08.24,2,.76,2,2.07s-1.14,2.3-2.91,2.3c-2.13,0-2.82-1.21-2.84-2.23Z" transform="translate(-4.58 -3.05)"/><path class="c" d="M79.25,91.73a2.44,2.44,0,1,1,0,4.88H77.77v2.46H76.31V91.73Zm-1.49,3.74h.87c1,0,1.62-.3,1.62-1.29A1.18,1.18,0,0,0,79,92.89H77.76Z" transform="translate(-4.58 -3.05)"/><path class="c" d="M88.24,94.05a2.15,2.15,0,0,1-1.33,2.06l1.47,3H86.76l-1.28-2.74H84.17v2.74H82.74V91.73h2.93A2.27,2.27,0,0,1,88.24,94.05Zm-2.8,1.19c.82,0,1.3-.4,1.3-1.16a1.15,1.15,0,0,0-1.28-1.21H84.17v2.37Z" transform="translate(-4.58 -3.05)"/><path class="c" d="M94.23,99.07H89.51V91.73h4.72v1.19H91V94.8H94v1.11H91v2h3.28Z" transform="translate(-4.58 -3.05)"/><path class="c" d="M96.5,97c0,.57.56,1.08,1.52,1.08s1.38-.41,1.38-1-.37-.78-1.12-1l-1.14-.26a2.05,2.05,0,0,1-1.86-2c0-1.43,1.23-2.22,2.74-2.22s2.7.86,2.72,2.18H99.38a1.21,1.21,0,0,0-1.37-1c-.78,0-1.27.37-1.27,1,0,.44.34.74,1,.89l1.14.26c1.08.24,2,.76,2,2.07s-1.14,2.3-2.91,2.3c-2.12,0-2.82-1.21-2.84-2.23Z" transform="translate(-4.58 -3.05)"/><path class="c" d="M103,97c.05.57.56,1.08,1.52,1.08s1.38-.41,1.38-1-.37-.78-1.13-1l-1.13-.26a2,2,0,0,1-1.86-2c0-1.43,1.22-2.22,2.73-2.22s2.7.86,2.73,2.18h-1.37a1.2,1.2,0,0,0-1.36-1c-.78,0-1.28.37-1.28,1,0,.44.34.74,1,.89l1.14.26c1.09.24,2,.76,2,2.07s-1.14,2.3-2.9,2.3c-2.13,0-2.82-1.21-2.84-2.23Z" transform="translate(-4.58 -3.05)"/><path class="c" d="M108.23,95c0-2.09,1.2-3.37,3.15-3.37s3.14,1.29,3.14,3.37v.94a3.15,3.15,0,1,1-6.29,0Zm1.48.94c0,1.41.7,2.1,1.67,2.1s1.67-.69,1.67-2.1V95c0-1.42-.7-2.15-1.67-2.15s-1.67.73-1.67,2.15Z" transform="translate(-4.58 -3.05)"/><path class="e" d="M131.31,138.84H46.69c-17.42,0-42.11-25.44-42.11-25.44H173.42S149.25,138.84,131.31,138.84Z" transform="translate(-4.58 -3.05)"/><path class="f" d="M33.35,95.19v-65H144.22V94.9c0,11.85-10.6,16.48-15.41,16.48H48.75C42,111.38,33.35,108.77,33.35,95.19Z" transform="translate(-4.58 -3.05)"/><path class="g" d="M144,68.56h5.6a18.06,18.06,0,1,0,0-36.11h-5.35" transform="translate(-4.58 -3.05)"/><path class="h" d="M79.48,22.5c1.32.61-4.5-3.05-4.5-6.07s4.5-3.74,4.5-7S76.21,4.94,75,4.3" transform="translate(-4.58 -3.05)"/><path class="h" d="M89.18,22.5c1.31.61-4.5-3.05-4.5-6.07s4.5-3.74,4.5-7-3.27-4.5-4.5-5.14" transform="translate(-4.58 -3.05)"/><path class="h" d="M98.88,22.5c1.31.61-4.5-3.05-4.5-6.07s4.5-3.74,4.5-7-3.28-4.5-4.5-5.14" transform="translate(-4.58 -3.05)"/></svg>