<svg xmlns="http://www.w3.org/2000/svg" width="168.84" height="135.8" viewBox="0 0 168.84 135.8"><defs><style>.a{fill:#c8dcb4;}.b{fill:#b4be8c;}.c{font-size:11px;fill:#fff;font-family:SFCompactDisplay-Semibold, SF Compact Display;font-weight:600;}.d{letter-spacing:0em;}.e{letter-spacing:-0.03em;}.f{letter-spacing:-0.01em;}.g{fill:#e16414;}.h{fill:#333;}.i,.j,.k{fill:none;}.i,.j{stroke:#333;}.i{stroke-width:4.7px;}.j{stroke-width:9.5px;}.k{stroke:#cccbcb;stroke-linecap:round;stroke-width:2.5px;}</style></defs><title>americano</title><rect class="a" x="30.21" y="28.72" width="108.42" height="25.28"/><rect class="b" x="30.21" y="44.45" width="108.42" height="35.13"/><text class="c" transform="translate(60.9 59.99)">STEAMED<tspan x="-16.76" y="13.2">HA</tspan><tspan class="d" x="-2.45" y="13.2">L</tspan><tspan x="3.05" y="13.2">F</tspan><tspan class="e" x="8.79" y="13.2">-</tspan><tspan x="12.69" y="13.2">AND-HA</tspan><tspan class="d" x="52.56" y="13.2">L</tspan><tspan x="58.06" y="13.2">F</tspan></text><text class="c" transform="translate(57.13 40.73)">MI<tspan class="d" x="11.77" y="0">L</tspan><tspan x="17.26" y="0">K F</tspan><tspan class="f" x="31.93" y="0">O</tspan><tspan x="39.05" y="0">AM</tspan></text><polygon class="g" points="129.48 106.7 35.81 106.7 30.21 99.72 30.21 79.29 138.63 79.29 138.63 96.49 129.48 106.7"/><text class="c" transform="translate(58.42 96.02)">ESPRESSO</text><path class="h" d="M131.31,138.84H46.69c-17.42,0-42.11-25.44-42.11-25.44H173.42S149.25,138.84,131.31,138.84Z" transform="translate(-4.58 -3.05)"/><path class="i" d="M33.35,95.19v-65H144.22V94.9c0,11.85-10.6,16.48-15.41,16.48H48.75C42,111.38,33.35,108.77,33.35,95.19Z" transform="translate(-4.58 -3.05)"/><path class="j" d="M144,68.56h5.6a18.06,18.06,0,1,0,0-36.11h-5.35" transform="translate(-4.58 -3.05)"/><path class="k" d="M79.48,22.5c1.32.61-4.5-3.05-4.5-6.07s4.5-3.74,4.5-7S76.21,4.94,75,4.3" transform="translate(-4.58 -3.05)"/><path class="k" d="M89.18,22.5c1.31.61-4.5-3.05-4.5-6.07s4.5-3.74,4.5-7-3.27-4.5-4.5-5.14" transform="translate(-4.58 -3.05)"/><path class="k" d="M98.88,22.5c1.31.61-4.5-3.05-4.5-6.07s4.5-3.74,4.5-7-3.28-4.5-4.5-5.14" transform="translate(-4.58 -3.05)"/></svg>