<svg xmlns="http://www.w3.org/2000/svg" width="168.84" height="135.8" viewBox="0 0 168.84 135.8"><defs><style>.a{fill:#a08244;}.b{fill:#b4be8c;}.c{fill:#b9dcdc;}.d{fill:#e16414;}.e{font-size:11px;fill:#fff;font-family:SFCompactDisplay-Semibold, SF Compact Display;font-weight:600;}.f{letter-spacing:0.03em;}.g{letter-spacing:-0.05em;}.h{letter-spacing:0em;}.i{letter-spacing:0em;}.j{letter-spacing:0em;}.k{letter-spacing:0em;}.l{fill:#333;}.m,.n,.o{fill:none;}.m,.n{stroke:#333;}.m{stroke-width:4.7px;}.n{stroke-width:9.5px;}.o{stroke:#cccbcb;stroke-linecap:round;stroke-width:2.5px;}</style></defs><title>americano</title><rect class="a" x="30.21" y="64.44" width="108.42" height="15.39"/><rect class="b" x="30.21" y="43.2" width="108.42" height="21.23"/><rect class="c" x="30.21" y="28.97" width="108.42" height="14.23"/><polygon class="d" points="129.48 106.95 35.81 106.95 30.21 99.98 30.21 79.55 138.63 79.55 138.63 96.74 129.48 106.95"/><text class="e" transform="translate(36.94 75.4)">CHOCO<tspan class="f" x="35.78" y="0">L</tspan><tspan class="g" x="41.58" y="0">A</tspan><tspan class="h" x="47.84" y="0">TE </tspan><tspan class="i" x="61.84" y="0">S</tspan><tspan x="68.27" y="0">YRUP</tspan></text><text class="e" transform="translate(58.42 96.27)">ESPRESSO</text><text class="e" transform="translate(42.74 40.65)">WHIPPED CREAM</text><text class="e" transform="translate(47.8 57.31)">STEAMED MI<tspan class="j" x="60.97" y="0">L</tspan><tspan class="k" x="66.46" y="0">K</tspan></text><path class="l" d="M131.31,138.84H46.69c-17.42,0-42.11-25.44-42.11-25.44H173.42S149.25,138.84,131.31,138.84Z" transform="translate(-4.58 -3.05)"/><path class="m" d="M33.35,95.19v-65H144.22V94.9c0,11.85-10.6,16.48-15.41,16.48H48.75C42,111.38,33.35,108.77,33.35,95.19Z" transform="translate(-4.58 -3.05)"/><path class="n" d="M144,68.56h5.6a18.06,18.06,0,1,0,0-36.11h-5.35" transform="translate(-4.58 -3.05)"/><path class="o" d="M79.48,22.5c1.32.61-4.5-3.05-4.5-6.07s4.5-3.74,4.5-7S76.21,4.94,75,4.3" transform="translate(-4.58 -3.05)"/><path class="o" d="M89.18,22.5c1.31.61-4.5-3.05-4.5-6.07s4.5-3.74,4.5-7-3.27-4.5-4.5-5.14" transform="translate(-4.58 -3.05)"/><path class="o" d="M98.88,22.5c1.31.61-4.5-3.05-4.5-6.07s4.5-3.74,4.5-7-3.28-4.5-4.5-5.14" transform="translate(-4.58 -3.05)"/></svg>