<svg xmlns="http://www.w3.org/2000/svg" width="168.84" height="135.8" viewBox="0 0 168.84 135.8"><defs><style>.a{fill:#c8dcb4;}.b{fill:#b4be8c;}.c{fill:#e16414;}.d{fill:#fff;}.e{fill:#333;}.f,.g,.h{fill:none;}.f,.g{stroke:#333;}.f{stroke-width:4.7px;}.g{stroke-width:9.5px;}.h{stroke:#cccbcb;stroke-linecap:round;stroke-width:2.5px;}</style></defs><title>coffeeeeeeeeee</title><rect class="a" x="30.21" y="28.72" width="108.42" height="25.28"/><rect class="b" x="30.21" y="44.45" width="108.42" height="35.13"/><polygon class="c" points="129.48 106.7 35.81 106.7 30.21 99.72 30.21 79.29 138.63 79.29 138.63 96.49 129.48 106.7"/><path class="d" d="M54.1,67c0,.57.56,1.07,1.52,1.07S57,67.62,57,67s-.37-.78-1.13-1l-1.13-.27a2,2,0,0,1-1.86-2c0-1.43,1.22-2.22,2.73-2.22s2.7.86,2.73,2.17H57c0-.54-.48-1-1.36-1s-1.28.37-1.28,1c0,.44.34.74,1,.88l1.14.26c1.09.24,2,.76,2,2.07s-1.13,2.3-2.9,2.3c-2.13,0-2.82-1.2-2.84-2.22Z" transform="translate(-4.58 -3.05)"/><path class="d" d="M61,69V62.92H58.94V61.71h5.62v1.21H62.48V69Z" transform="translate(-4.58 -3.05)"/><path class="d" d="M70.14,69H65.42V61.71h4.72V62.9H66.86v1.88h3.08v1.11H66.86v2h3.28Z" transform="translate(-4.58 -3.05)"/><path class="d" d="M70.78,69l2.46-7.33h1.7L77.38,69H75.84l-.57-1.88H72.82L72.24,69ZM74,63.11l-.9,3H75l-.9-3Z" transform="translate(-4.58 -3.05)"/><path class="d" d="M78.26,69V61.71h1.48l2.09,4.73h0L84,61.71h1.46V69h-1.3V64.2h-.06l-1.75,3.92h-.95L79.62,64.2h-.06V69Z" transform="translate(-4.58 -3.05)"/><path class="d" d="M91.73,69H87V61.71h4.72V62.9H88.45v1.88h3.08v1.11H88.45v2h3.28Z" transform="translate(-4.58 -3.05)"/><path class="d" d="M95.74,61.71C98,61.71,99,63,99,65.36S98,69,95.74,69H93.06V61.71Zm-1.23,6.14h1c1.22,0,2-.61,2-2.47,0-1.51-.53-2.48-2-2.48h-1Z" transform="translate(-4.58 -3.05)"/><path class="d" d="M102.37,69V61.71h1.48l2.09,4.73h0l2.1-4.73h1.46V69h-1.3V64.2h-.06l-1.75,3.92h-1l-1.75-3.92h-.06V69Z" transform="translate(-4.58 -3.05)"/><path class="d" d="M111.12,69V61.71h1.45V69Z" transform="translate(-4.58 -3.05)"/><path class="d" d="M118.69,69h-4.56V61.71h1.45v6.1h3.11Z" transform="translate(-4.58 -3.05)"/><path class="d" d="M122.89,64.87,125.62,69h-1.75l-2.05-3.21-.75.86V69h-1.45V61.71h1.45V65h.07l2.77-3.28h1.6Z" transform="translate(-4.58 -3.05)"/><path class="d" d="M68.5,99.07H63.78V91.73H68.5v1.19H65.22V94.8H68.3v1.11H65.22v2H68.5Z" transform="translate(-4.58 -3.05)"/><path class="d" d="M70.77,97c0,.57.56,1.08,1.52,1.08s1.38-.41,1.38-1-.37-.78-1.13-1l-1.13-.26a2.05,2.05,0,0,1-1.86-2c0-1.43,1.23-2.22,2.74-2.22s2.7.86,2.72,2.18H73.64c0-.55-.48-1-1.36-1s-1.28.37-1.28,1c0,.44.35.74,1,.89l1.13.26c1.09.24,2,.76,2,2.07s-1.14,2.3-2.91,2.3c-2.13,0-2.82-1.21-2.84-2.23Z" transform="translate(-4.58 -3.05)"/><path class="d" d="M79.25,91.73a2.44,2.44,0,1,1,0,4.88H77.76v2.46H76.31V91.73Zm-1.49,3.74h.87c1,0,1.62-.3,1.62-1.29A1.18,1.18,0,0,0,79,92.89H77.76Z" transform="translate(-4.58 -3.05)"/><path class="d" d="M88.24,94.05a2.15,2.15,0,0,1-1.33,2.06l1.47,3H86.76l-1.28-2.74H84.17v2.74H82.74V91.73h2.93A2.27,2.27,0,0,1,88.24,94.05Zm-2.8,1.19c.82,0,1.3-.4,1.3-1.16a1.15,1.15,0,0,0-1.28-1.21H84.17v2.37Z" transform="translate(-4.58 -3.05)"/><path class="d" d="M94.23,99.07H89.51V91.73h4.72v1.19H91V94.8H94v1.11H91v2h3.28Z" transform="translate(-4.58 -3.05)"/><path class="d" d="M96.5,97c0,.57.56,1.08,1.52,1.08s1.38-.41,1.38-1-.37-.78-1.12-1l-1.14-.26a2.05,2.05,0,0,1-1.86-2c0-1.43,1.23-2.22,2.74-2.22s2.7.86,2.72,2.18H99.38a1.21,1.21,0,0,0-1.37-1c-.78,0-1.28.37-1.28,1,0,.44.35.74,1,.89l1.14.26c1.08.24,2,.76,2,2.07s-1.14,2.3-2.91,2.3c-2.12,0-2.82-1.21-2.84-2.23Z" transform="translate(-4.58 -3.05)"/><path class="d" d="M103,97c0,.57.55,1.08,1.52,1.08s1.38-.41,1.38-1-.37-.78-1.13-1l-1.13-.26a2,2,0,0,1-1.86-2c0-1.43,1.22-2.22,2.73-2.22s2.7.86,2.72,2.18h-1.36a1.2,1.2,0,0,0-1.36-1c-.78,0-1.28.37-1.28,1,0,.44.34.74,1,.89l1.14.26c1.09.24,2,.76,2,2.07s-1.14,2.3-2.9,2.3c-2.13,0-2.82-1.21-2.85-2.23Z" transform="translate(-4.58 -3.05)"/><path class="d" d="M108.23,95c0-2.09,1.2-3.37,3.15-3.37s3.14,1.29,3.14,3.37v.94a3.15,3.15,0,1,1-6.29,0Zm1.48.94c0,1.41.7,2.1,1.67,2.1s1.67-.69,1.67-2.1V95c0-1.42-.7-2.15-1.67-2.15s-1.67.73-1.67,2.15Z" transform="translate(-4.58 -3.05)"/><path class="d" d="M62.5,43.78V36.45H64l2.09,4.73h0l2.1-4.73h1.46v7.33h-1.3V38.94h-.06l-1.75,3.92h-1l-1.75-3.92H63.8v4.84Z" transform="translate(-4.58 -3.05)"/><path class="d" d="M71.25,43.78V36.45H72.7v7.33Z" transform="translate(-4.58 -3.05)"/><path class="d" d="M78.82,43.78H74.26V36.45h1.45v6.09h3.11Z" transform="translate(-4.58 -3.05)"/><path class="d" d="M83,39.61l2.73,4.17H84l-2-3.21-.75.86v2.35H79.75V36.45H81.2v3.28h.07L84,36.45h1.6Z" transform="translate(-4.58 -3.05)"/><path class="d" d="M88.67,43.78V36.45h4.68v1.2H90.12v2h2.95v1.17H90.12v2.92Z" transform="translate(-4.58 -3.05)"/><path class="d" d="M94.12,39.67c0-2.08,1.19-3.36,3.15-3.36s3.13,1.29,3.13,3.36v.94a3.14,3.14,0,1,1-6.28,0Zm1.48.95c0,1.41.69,2.09,1.66,2.09s1.67-.68,1.67-2.09v-1c0-1.41-.7-2.14-1.67-2.14s-1.66.73-1.66,2.14Z" transform="translate(-4.58 -3.05)"/><path class="d" d="M100.84,43.78l2.46-7.33H105l2.44,7.33H105.9l-.57-1.88h-2.45l-.58,1.88Zm3.24-5.93-.89,3H105l-.89-3Z" transform="translate(-4.58 -3.05)"/><path class="d" d="M108.33,43.78V36.45h1.47l2.09,4.73h0l2.1-4.73h1.47v7.33h-1.31V38.94h-.06l-1.75,3.92h-.94l-1.76-3.92h-.06v4.84Z" transform="translate(-4.58 -3.05)"/><path class="e" d="M131.31,138.84H46.69c-17.42,0-42.11-25.44-42.11-25.44H173.42S149.25,138.84,131.31,138.84Z" transform="translate(-4.58 -3.05)"/><path class="f" d="M33.35,95.19v-65H144.22V94.9c0,11.85-10.6,16.48-15.41,16.48H48.75C42,111.38,33.35,108.77,33.35,95.19Z" transform="translate(-4.58 -3.05)"/><path class="g" d="M144,68.56h5.6a18.06,18.06,0,1,0,0-36.11h-5.35" transform="translate(-4.58 -3.05)"/><path class="h" d="M79.48,22.5c1.32.61-4.5-3.05-4.5-6.07s4.5-3.74,4.5-7S76.21,4.94,75,4.3" transform="translate(-4.58 -3.05)"/><path class="h" d="M89.18,22.5c1.31.61-4.5-3.05-4.5-6.07s4.5-3.74,4.5-7-3.27-4.5-4.5-5.14" transform="translate(-4.58 -3.05)"/><path class="h" d="M98.88,22.5c1.31.61-4.5-3.05-4.5-6.07s4.5-3.74,4.5-7-3.28-4.5-4.5-5.14" transform="translate(-4.58 -3.05)"/></svg>