<svg xmlns="http://www.w3.org/2000/svg" width="168.84" height="135.8" viewBox="0 0 168.84 135.8"><defs><style>.a{fill:#a08244;}.b{fill:#b4be8c;}.c{fill:#b9dcdc;}.d{fill:#e16414;}.e{fill:#fff;}.f{fill:#333;}.g,.h,.i{fill:none;}.g,.h{stroke:#333;}.g{stroke-width:4.7px;}.h{stroke-width:9.5px;}.i{stroke:#cccbcb;stroke-linecap:round;stroke-width:2.5px;}</style></defs><title>coffeeeeeeeeee</title><rect class="a" x="30.21" y="64.44" width="108.42" height="15.39"/><rect class="b" x="30.21" y="43.2" width="108.42" height="21.23"/><rect class="c" x="30.21" y="28.97" width="108.42" height="14.23"/><polygon class="d" points="129.48 106.95 35.81 106.95 30.21 99.98 30.21 79.55 138.63 79.55 138.63 96.74 129.48 106.95"/><path class="e" d="M43.47,75.22c0,1.38.58,2.14,1.61,2.14A1.38,1.38,0,0,0,46.55,76H48v.14a2.61,2.61,0,0,1-2.88,2.5c-2,0-3.07-1.29-3.07-3.38v-.83C42,72.27,43.11,71,45.07,71A2.63,2.63,0,0,1,48,73.55v.14h-1.4a1.42,1.42,0,0,0-1.47-1.49c-1,0-1.61.77-1.61,2.17Z" transform="translate(-4.58 -3.05)"/><path class="e" d="M53.69,78.45V75.3H50.62v3.15H49.17V71.12h1.45v3h3.07v-3h1.46v7.33Z" transform="translate(-4.58 -3.05)"/><path class="e" d="M56.41,74.34c0-2.09,1.19-3.37,3.15-3.37s3.14,1.29,3.14,3.37v.94a3.15,3.15,0,1,1-6.29,0Zm1.48.94c0,1.42.7,2.1,1.66,2.1s1.67-.68,1.67-2.1v-1c0-1.42-.69-2.15-1.67-2.15s-1.66.73-1.66,2.15Z" transform="translate(-4.58 -3.05)"/><path class="e" d="M65.13,75.22c0,1.38.58,2.14,1.61,2.14A1.37,1.37,0,0,0,68.21,76h1.4v.14a2.61,2.61,0,0,1-2.88,2.5c-2,0-3.07-1.29-3.07-3.38v-.83c0-2.11,1.11-3.41,3.07-3.41a2.63,2.63,0,0,1,2.88,2.58v.14h-1.4a1.41,1.41,0,0,0-1.47-1.49c-1,0-1.61.77-1.61,2.17Z" transform="translate(-4.58 -3.05)"/><path class="e" d="M70.53,74.34c0-2.09,1.19-3.37,3.15-3.37s3.14,1.29,3.14,3.37v.94a3.15,3.15,0,1,1-6.29,0Zm1.48.94c0,1.42.7,2.1,1.66,2.1s1.67-.68,1.67-2.1v-1c0-1.42-.69-2.15-1.67-2.15S72,72.91,72,74.33Z" transform="translate(-4.58 -3.05)"/><path class="e" d="M82.64,78.45H78.08V71.12h1.45v6.09h3.11Z" transform="translate(-4.58 -3.05)"/><path class="e" d="M83.18,78.45l2.46-7.33h1.7l2.45,7.33H88.25l-.58-1.89H85.23l-.58,1.89Zm3.24-5.93-.89,3h1.85l-.89-3Z" transform="translate(-4.58 -3.05)"/><path class="e" d="M91.52,78.45V72.33H89.44V71.12h5.62v1.21H93v6.12Z" transform="translate(-4.58 -3.05)"/><path class="e" d="M100.64,78.45H95.92V71.12h4.72V72.3H97.36v1.88h3.08v1.11H97.36v2h3.28Z" transform="translate(-4.58 -3.05)"/><path class="e" d="M105.07,76.36c.05.57.56,1.08,1.52,1.08s1.38-.41,1.38-1-.37-.78-1.12-1l-1.14-.26a2.05,2.05,0,0,1-1.86-2c0-1.43,1.23-2.22,2.74-2.22s2.7.86,2.72,2.18H108a1.21,1.21,0,0,0-1.37-1c-.78,0-1.28.37-1.28,1,0,.44.35.74,1,.89l1.14.26c1.08.24,2,.76,2,2.07s-1.14,2.3-2.91,2.3c-2.12,0-2.82-1.21-2.84-2.23Z" transform="translate(-4.58 -3.05)"/><path class="e" d="M112.16,78.45V75.66l-2.46-4.54h1.61l1.56,3.1h.06l1.56-3.1h1.57l-2.45,4.51v2.82Z" transform="translate(-4.58 -3.05)"/><path class="e" d="M122.26,73.44a2.14,2.14,0,0,1-1.34,2l1.48,3h-1.63l-1.28-2.74h-1.31v2.74h-1.42V71.12h2.92A2.27,2.27,0,0,1,122.26,73.44Zm-2.81,1.18c.82,0,1.31-.4,1.31-1.16a1.16,1.16,0,0,0-1.29-1.21h-1.29v2.37Z" transform="translate(-4.58 -3.05)"/><path class="e" d="M124.89,75.77a1.51,1.51,0,1,0,3,0V71.12h1.45V76c0,1.55-1.12,2.62-3,2.62s-3-1.07-3-2.62V71.12h1.45Z" transform="translate(-4.58 -3.05)"/><path class="e" d="M133.77,71.12a2.44,2.44,0,1,1,0,4.87h-1.47v2.46h-1.45V71.12Zm-1.49,3.73h.87c1,0,1.61-.3,1.61-1.29a1.17,1.17,0,0,0-1.27-1.29h-1.21Z" transform="translate(-4.58 -3.05)"/><path class="e" d="M68.5,99.32H63.78V92H68.5v1.19H65.22v1.88H68.3v1.11H65.22v2H68.5Z" transform="translate(-4.58 -3.05)"/><path class="e" d="M70.77,97.24c0,.57.56,1.07,1.52,1.07s1.38-.41,1.38-1-.37-.78-1.13-1l-1.13-.26a2,2,0,0,1-1.86-2c0-1.43,1.23-2.22,2.74-2.22S75,92.7,75,94H73.64c0-.54-.48-1-1.36-1s-1.28.37-1.28,1c0,.44.35.74,1,.89l1.13.26c1.09.24,2,.76,2,2.07s-1.14,2.3-2.91,2.3c-2.13,0-2.82-1.2-2.84-2.22Z" transform="translate(-4.58 -3.05)"/><path class="e" d="M79.25,92a2.44,2.44,0,1,1,0,4.87H77.76v2.46H76.31V92Zm-1.49,3.73h.87c1,0,1.62-.29,1.62-1.29A1.18,1.18,0,0,0,79,93.14H77.76Z" transform="translate(-4.58 -3.05)"/><path class="e" d="M88.24,94.31a2.16,2.16,0,0,1-1.33,2.06l1.47,2.95H86.76l-1.28-2.73H84.17v2.73H82.74V92h2.93A2.26,2.26,0,0,1,88.24,94.31Zm-2.8,1.19c.82,0,1.3-.41,1.3-1.16a1.14,1.14,0,0,0-1.28-1.21H84.17V95.5Z" transform="translate(-4.58 -3.05)"/><path class="e" d="M94.23,99.32H89.51V92h4.72v1.19H91v1.88H94v1.11H91v2h3.28Z" transform="translate(-4.58 -3.05)"/><path class="e" d="M96.5,97.24c0,.57.56,1.07,1.52,1.07s1.38-.41,1.38-1-.37-.78-1.12-1l-1.14-.26a2,2,0,0,1-1.86-2c0-1.43,1.23-2.22,2.74-2.22s2.7.86,2.72,2.17H99.38c0-.54-.49-1-1.37-1s-1.28.37-1.28,1c0,.44.35.74,1,.89l1.14.26c1.08.24,2,.76,2,2.07s-1.14,2.3-2.91,2.3c-2.12,0-2.82-1.2-2.84-2.22Z" transform="translate(-4.58 -3.05)"/><path class="e" d="M103,97.24c.05.57.56,1.07,1.52,1.07s1.38-.41,1.38-1-.37-.78-1.13-1l-1.13-.26a2,2,0,0,1-1.86-2c0-1.43,1.22-2.22,2.73-2.22s2.7.86,2.73,2.17h-1.37c0-.54-.48-1-1.36-1s-1.28.37-1.28,1c0,.44.34.74,1,.89l1.14.26c1.09.24,2,.76,2,2.07s-1.14,2.3-2.9,2.3c-2.13,0-2.82-1.2-2.85-2.22Z" transform="translate(-4.58 -3.05)"/><path class="e" d="M108.23,95.21c0-2.08,1.2-3.36,3.15-3.36s3.14,1.29,3.14,3.36v.94a3.15,3.15,0,1,1-6.29,0Zm1.48,1c0,1.41.7,2.09,1.67,2.09s1.67-.68,1.67-2.09v-1c0-1.41-.7-2.14-1.67-2.14s-1.67.73-1.67,2.14Z" transform="translate(-4.58 -3.05)"/><path class="e" d="M49.29,43.69l-1.94-7.33h1.54L50,41.59h0l1.3-5.23h1.26l1.3,5.23H54l1.14-5.23h1.54l-1.94,7.33H53.39L52,38.61h0l-1.36,5.08Z" transform="translate(-4.58 -3.05)"/><path class="e" d="M62,43.69V40.55H58.93v3.14H57.48V36.36h1.45v3H62v-3h1.45v7.33Z" transform="translate(-4.58 -3.05)"/><path class="e" d="M65,43.69V36.36h1.45v7.33Z" transform="translate(-4.58 -3.05)"/><path class="e" d="M71,36.36a2.44,2.44,0,1,1,0,4.87H69.48v2.46H68V36.36ZM69.47,40.1h.87c1,0,1.62-.3,1.62-1.29a1.17,1.17,0,0,0-1.28-1.29H69.47Z" transform="translate(-4.58 -3.05)"/><path class="e" d="M77.39,36.36a2.44,2.44,0,1,1,0,4.87H75.91v2.46H74.46V36.36ZM75.9,40.1h.87c1,0,1.62-.3,1.62-1.29a1.17,1.17,0,0,0-1.28-1.29H75.9Z" transform="translate(-4.58 -3.05)"/><path class="e" d="M85.61,43.69H80.89V36.36h4.72v1.19H82.33v1.88h3.08v1.11H82.33v2h3.28Z" transform="translate(-4.58 -3.05)"/><path class="e" d="M89.62,36.36c2.22,0,3.28,1.33,3.28,3.65s-1.07,3.68-3.28,3.68H86.94V36.36Zm-1.23,6.15h1c1.22,0,2-.62,2-2.47,0-1.52-.53-2.49-2-2.49h-1Z" transform="translate(-4.58 -3.05)"/><path class="e" d="M97.41,40.47c0,1.38.58,2.14,1.61,2.14a1.38,1.38,0,0,0,1.47-1.41h1.4v.14A2.61,2.61,0,0,1,99,43.83c-2,0-3.07-1.28-3.07-3.37v-.84c0-2.1,1.12-3.4,3.07-3.4a2.63,2.63,0,0,1,2.88,2.58v.14h-1.4A1.41,1.41,0,0,0,99,37.45c-1,0-1.61.77-1.61,2.17Z" transform="translate(-4.58 -3.05)"/><path class="e" d="M108.61,38.68a2.14,2.14,0,0,1-1.34,2.06l1.48,2.95h-1.62L105.84,41h-1.3v2.73h-1.43V36.36H106A2.28,2.28,0,0,1,108.61,38.68Zm-2.81,1.19c.82,0,1.31-.4,1.31-1.16a1.15,1.15,0,0,0-1.29-1.21h-1.28v2.37Z" transform="translate(-4.58 -3.05)"/><path class="e" d="M114.6,43.69h-4.72V36.36h4.72v1.19h-3.29v1.88h3.09v1.11h-3.09v2h3.29Z" transform="translate(-4.58 -3.05)"/><path class="e" d="M115.23,43.69l2.46-7.33h1.7l2.45,7.33h-1.55l-.57-1.88h-2.44l-.58,1.88Zm3.24-5.93-.89,3h1.85l-.89-3Z" transform="translate(-4.58 -3.05)"/><path class="e" d="M122.72,43.69V36.36h1.47l2.09,4.73h0l2.09-4.73h1.47v7.33h-1.31V38.85h-.06l-1.75,3.93h-.94l-1.76-3.93H124v4.84Z" transform="translate(-4.58 -3.05)"/><path class="e" d="M54.1,58.28c0,.56.56,1.07,1.52,1.07s1.38-.41,1.38-1-.37-.77-1.13-.95l-1.13-.26a2,2,0,0,1-1.86-2c0-1.43,1.22-2.22,2.73-2.22s2.71.86,2.73,2.17H57c0-.55-.48-1-1.36-1s-1.28.37-1.28,1,.34.74,1,.89l1.14.26c1.09.24,2,.76,2,2.07s-1.13,2.3-2.9,2.3c-2.13,0-2.82-1.2-2.84-2.22Z" transform="translate(-4.58 -3.05)"/><path class="e" d="M61,60.36V54.24H58.94V53h5.62v1.21H62.48v6.12Z" transform="translate(-4.58 -3.05)"/><path class="e" d="M70.14,60.36H65.42V53h4.72v1.18H66.86v1.88h3.08v1.12H66.86v2h3.28Z" transform="translate(-4.58 -3.05)"/><path class="e" d="M70.78,60.36,73.24,53h1.7l2.44,7.33H75.84l-.57-1.89H72.82l-.58,1.89ZM74,54.43l-.9,3H75l-.9-3Z" transform="translate(-4.58 -3.05)"/><path class="e" d="M78.26,60.36V53h1.48l2.09,4.73h0L84,53h1.46v7.33h-1.3V55.51h-.06l-1.75,3.93h-.95l-1.75-3.93h-.06v4.85Z" transform="translate(-4.58 -3.05)"/><path class="e" d="M91.73,60.36H87V53h4.72v1.18H88.45v1.88h3.08v1.12H88.45v2h3.28Z" transform="translate(-4.58 -3.05)"/><path class="e" d="M95.74,53C98,53,99,54.35,99,56.67S98,60.36,95.74,60.36H93.06V53Zm-1.23,6.14h1c1.22,0,2-.62,2-2.47,0-1.51-.53-2.49-2-2.49h-1Z" transform="translate(-4.58 -3.05)"/><path class="e" d="M102.38,60.36V53h1.47l2.09,4.73h0l2.1-4.73h1.46v7.33h-1.3V55.51h-.06l-1.75,3.93h-1l-1.75-3.93h-.06v4.85Z" transform="translate(-4.58 -3.05)"/><path class="e" d="M111.12,60.36V53h1.45v7.33Z" transform="translate(-4.58 -3.05)"/><path class="e" d="M118.69,60.36h-4.56V53h1.45v6.09h3.11Z" transform="translate(-4.58 -3.05)"/><path class="e" d="M122.89,56.19l2.73,4.17h-1.74l-2.06-3.21-.75.86v2.35h-1.45V53h1.45v3.28h.06L123.91,53h1.6Z" transform="translate(-4.58 -3.05)"/><path class="f" d="M131.31,138.84H46.69c-17.42,0-42.11-25.44-42.11-25.44H173.42S149.25,138.84,131.31,138.84Z" transform="translate(-4.58 -3.05)"/><path class="g" d="M33.35,95.19v-65H144.22V94.9c0,11.85-10.6,16.48-15.41,16.48H48.75C42,111.38,33.35,108.77,33.35,95.19Z" transform="translate(-4.58 -3.05)"/><path class="h" d="M144,68.56h5.6a18.06,18.06,0,1,0,0-36.11h-5.35" transform="translate(-4.58 -3.05)"/><path class="i" d="M79.48,22.5c1.32.61-4.5-3.05-4.5-6.07s4.5-3.74,4.5-7S76.21,4.94,75,4.3" transform="translate(-4.58 -3.05)"/><path class="i" d="M89.18,22.5c1.31.61-4.5-3.05-4.5-6.07s4.5-3.74,4.5-7-3.27-4.5-4.5-5.14" transform="translate(-4.58 -3.05)"/><path class="i" d="M98.88,22.5c1.31.61-4.5-3.05-4.5-6.07s4.5-3.74,4.5-7-3.28-4.5-4.5-5.14" transform="translate(-4.58 -3.05)"/></svg>