<svg xmlns="http://www.w3.org/2000/svg" width="168.84" height="135.8" viewBox="0 0 168.84 135.8"><defs><style>.a{fill:#c8dcb4;}.b{fill:#b4be8c;}.c{fill:#e16414;}.d{fill:#fff;}.e{fill:#333;}.f,.g,.h{fill:none;}.f,.g{stroke:#333;}.f{stroke-width:4.7px;}.g{stroke-width:9.5px;}.h{stroke:#cccbcb;stroke-linecap:round;stroke-width:2.5px;}</style></defs><title>coffeeeeeeeeee</title><rect class="a" x="30.21" y="28.72" width="108.42" height="33.13"/><rect class="b" x="30.21" y="61.85" width="108.42" height="17.73"/><polygon class="c" points="129.48 106.7 35.81 106.7 30.21 99.72 30.21 79.29 138.63 79.29 138.63 96.49 129.48 106.7"/><path class="d" d="M54.11,75c0,.57.56,1.07,1.52,1.07S57,75.62,57,75s-.37-.78-1.13-1l-1.13-.27a2,2,0,0,1-1.86-2c0-1.43,1.22-2.22,2.73-2.22s2.71.86,2.73,2.17H57c0-.54-.48-1-1.36-1s-1.28.37-1.28,1c0,.43.34.74,1,.88l1.14.26c1.09.24,2,.76,2,2.07s-1.13,2.3-2.9,2.3c-2.13,0-2.82-1.2-2.84-2.22Z" transform="translate(-4.58 -3.05)"/><path class="d" d="M61,77V70.92H59V69.71h5.62v1.21H62.49V77Z" transform="translate(-4.58 -3.05)"/><path class="d" d="M70.15,77H65.43V69.71h4.72V70.9H66.87v1.88H70v1.11H66.87v2h3.28Z" transform="translate(-4.58 -3.05)"/><path class="d" d="M70.79,77l2.46-7.33H75L77.39,77H75.85l-.57-1.88H72.83L72.25,77ZM74,71.11l-.9,3H75l-.89-3Z" transform="translate(-4.58 -3.05)"/><path class="d" d="M78.27,77V69.71h1.48l2.09,4.73h0L84,69.71h1.46V77h-1.3V72.2h-.06l-1.75,3.92h-1L79.63,72.2h-.06V77Z" transform="translate(-4.58 -3.05)"/><path class="d" d="M91.74,77H87V69.71h4.72V70.9H88.46v1.88h3.08v1.11H88.46v2h3.28Z" transform="translate(-4.58 -3.05)"/><path class="d" d="M95.75,69.71C98,69.71,99,71,99,73.36S98,77,95.75,77H93.07V69.71Zm-1.23,6.14h1c1.22,0,2-.61,2-2.47,0-1.51-.53-2.48-2-2.48h-1Z" transform="translate(-4.58 -3.05)"/><path class="d" d="M102.38,77V69.71h1.48L106,74.44h0l2.1-4.73h1.47V77h-1.31V72.2h-.06l-1.75,3.92h-1l-1.75-3.92h-.06V77Z" transform="translate(-4.58 -3.05)"/><path class="d" d="M111.13,77V69.71h1.45V77Z" transform="translate(-4.58 -3.05)"/><path class="d" d="M118.7,77h-4.56V69.71h1.45v6.1h3.11Z" transform="translate(-4.58 -3.05)"/><path class="d" d="M122.9,72.87,125.63,77h-1.74l-2.06-3.21-.75.86V77h-1.45V69.71h1.45V73h.07l2.77-3.28h1.6Z" transform="translate(-4.58 -3.05)"/><path class="d" d="M68.5,99.07H63.78V91.74H68.5v1.18H65.22V94.8H68.3v1.11H65.22v2H68.5Z" transform="translate(-4.58 -3.05)"/><path class="d" d="M70.77,97c0,.57.56,1.08,1.52,1.08s1.38-.41,1.38-1-.37-.78-1.13-1l-1.13-.26a2.05,2.05,0,0,1-1.86-2c0-1.43,1.23-2.22,2.74-2.22s2.7.86,2.72,2.18H73.64c0-.55-.48-1-1.36-1s-1.28.37-1.28,1c0,.44.35.74,1,.89l1.13.26c1.09.24,2,.76,2,2.07s-1.14,2.3-2.91,2.3c-2.13,0-2.82-1.21-2.84-2.23Z" transform="translate(-4.58 -3.05)"/><path class="d" d="M79.25,91.74a2.44,2.44,0,1,1,0,4.87H77.76v2.46H76.31V91.74Zm-1.49,3.73h.87c1,0,1.62-.3,1.62-1.29A1.18,1.18,0,0,0,79,92.89H77.76Z" transform="translate(-4.58 -3.05)"/><path class="d" d="M88.24,94.06a2.14,2.14,0,0,1-1.33,2l1.47,3H86.76l-1.28-2.74H84.17v2.74H82.74V91.74h2.93A2.26,2.26,0,0,1,88.24,94.06Zm-2.8,1.18c.82,0,1.3-.4,1.3-1.16a1.15,1.15,0,0,0-1.28-1.21H84.17v2.37Z" transform="translate(-4.58 -3.05)"/><path class="d" d="M94.23,99.07H89.51V91.74h4.72v1.18H91V94.8H94v1.11H91v2h3.28Z" transform="translate(-4.58 -3.05)"/><path class="d" d="M96.5,97c0,.57.56,1.08,1.52,1.08s1.38-.41,1.38-1-.37-.78-1.12-1l-1.14-.26a2.05,2.05,0,0,1-1.86-2c0-1.43,1.23-2.22,2.74-2.22s2.7.86,2.72,2.18H99.38a1.21,1.21,0,0,0-1.37-1c-.78,0-1.28.37-1.28,1,0,.44.35.74,1,.89l1.14.26c1.08.24,2,.76,2,2.07s-1.14,2.3-2.91,2.3c-2.12,0-2.82-1.21-2.84-2.23Z" transform="translate(-4.58 -3.05)"/><path class="d" d="M103,97c0,.57.55,1.08,1.52,1.08s1.38-.41,1.38-1-.37-.78-1.13-1l-1.13-.26a2,2,0,0,1-1.86-2c0-1.43,1.22-2.22,2.73-2.22s2.7.86,2.72,2.18h-1.36a1.2,1.2,0,0,0-1.36-1c-.78,0-1.28.37-1.28,1,0,.44.34.74,1,.89l1.14.26c1.09.24,2,.76,2,2.07s-1.14,2.3-2.9,2.3c-2.13,0-2.82-1.21-2.85-2.23Z" transform="translate(-4.58 -3.05)"/><path class="d" d="M108.23,95c0-2.09,1.2-3.37,3.15-3.37s3.14,1.29,3.14,3.37v.94a3.15,3.15,0,1,1-6.29,0Zm1.48.94c0,1.42.7,2.1,1.67,2.1s1.67-.68,1.67-2.1V95c0-1.42-.7-2.15-1.67-2.15s-1.67.73-1.67,2.15Z" transform="translate(-4.58 -3.05)"/><path class="d" d="M62.5,53V45.65H64l2.09,4.73h0l2.1-4.73h1.46V53h-1.3V48.14h-.06l-1.75,3.92h-1l-1.75-3.92H63.8V53Z" transform="translate(-4.58 -3.05)"/><path class="d" d="M71.25,53V45.65H72.7V53Z" transform="translate(-4.58 -3.05)"/><path class="d" d="M78.82,53H74.26V45.65h1.45v6.1h3.11Z" transform="translate(-4.58 -3.05)"/><path class="d" d="M83,48.81,85.75,53H84l-2-3.21-.75.86V53H79.75V45.65H81.2v3.28h.07L84,45.65h1.6Z" transform="translate(-4.58 -3.05)"/><path class="d" d="M88.67,53V45.65h4.68v1.2H90.12v2h2.95v1.17H90.12V53Z" transform="translate(-4.58 -3.05)"/><path class="d" d="M94.12,48.87c0-2.08,1.19-3.36,3.15-3.36s3.13,1.29,3.13,3.36v.94a3.14,3.14,0,1,1-6.28,0Zm1.48,1c0,1.41.69,2.09,1.66,2.09s1.67-.68,1.67-2.09v-1c0-1.41-.7-2.14-1.67-2.14s-1.66.73-1.66,2.14Z" transform="translate(-4.58 -3.05)"/><path class="d" d="M100.84,53l2.46-7.33H105L107.44,53H105.9l-.57-1.89h-2.45L102.3,53Zm3.24-5.93-.89,3H105l-.89-3Z" transform="translate(-4.58 -3.05)"/><path class="d" d="M108.33,53V45.65h1.47l2.09,4.73h0l2.1-4.73h1.47V53h-1.31V48.14h-.06l-1.75,3.92h-.94l-1.76-3.92h-.06V53Z" transform="translate(-4.58 -3.05)"/><path class="e" d="M131.31,138.84H46.69c-17.42,0-42.11-25.44-42.11-25.44H173.42S149.25,138.84,131.31,138.84Z" transform="translate(-4.58 -3.05)"/><path class="f" d="M33.35,95.19v-65H144.22V94.9c0,11.85-10.6,16.48-15.41,16.48H48.75C42,111.38,33.35,108.77,33.35,95.19Z" transform="translate(-4.58 -3.05)"/><path class="g" d="M144,68.56h5.6a18.06,18.06,0,1,0,0-36.11h-5.35" transform="translate(-4.58 -3.05)"/><path class="h" d="M79.48,22.5c1.32.61-4.5-3.05-4.5-6.07s4.5-3.74,4.5-7S76.21,4.94,75,4.3" transform="translate(-4.58 -3.05)"/><path class="h" d="M89.18,22.5c1.31.61-4.5-3.05-4.5-6.07s4.5-3.74,4.5-7-3.27-4.5-4.5-5.14" transform="translate(-4.58 -3.05)"/><path class="h" d="M98.88,22.5c1.31.61-4.5-3.05-4.5-6.07s4.5-3.74,4.5-7-3.28-4.5-4.5-5.14" transform="translate(-4.58 -3.05)"/></svg>