<svg xmlns="http://www.w3.org/2000/svg" width="168.84" height="135.8" viewBox="0 0 168.84 135.8"><defs><style>.a{fill:#e16414;}.b{fill:#fff;}.c{fill:#333;}.d,.e,.f{fill:none;}.d,.e{stroke:#333;}.d{stroke-width:4.7px;}.e{stroke-width:9.5px;}.f{stroke:#cccbcb;stroke-linecap:round;stroke-width:2.5px;}</style></defs><title>coffeeeeeeeeee</title><polygon class="a" points="129.48 107.11 35.81 107.11 30.21 100.14 30.21 79.71 138.63 79.71 138.63 96.91 129.48 107.11"/><path class="b" d="M68.5,99.76H63.78V92.43H68.5v1.19H65.22V95.5H68.3v1.11H65.22v2H68.5Z" transform="translate(-4.58 -3.05)"/><path class="b" d="M70.77,97.68c0,.57.56,1.07,1.52,1.07s1.38-.41,1.38-1-.37-.78-1.13-.95l-1.13-.27a2,2,0,0,1-1.86-2c0-1.43,1.23-2.22,2.74-2.22s2.7.86,2.72,2.18H73.64c0-.55-.48-1-1.36-1s-1.28.37-1.28,1c0,.44.35.74,1,.88l1.13.27c1.09.23,2,.75,2,2.06S74,99.9,72.21,99.9c-2.13,0-2.82-1.2-2.84-2.22Z" transform="translate(-4.58 -3.05)"/><path class="b" d="M79.25,92.43a2.44,2.44,0,1,1,0,4.87H77.76v2.46H76.31V92.43Zm-1.49,3.73h.87c1,0,1.62-.29,1.62-1.28A1.17,1.17,0,0,0,79,93.59H77.76Z" transform="translate(-4.58 -3.05)"/><path class="b" d="M88.24,94.75a2.16,2.16,0,0,1-1.33,2.06l1.47,3H86.76L85.48,97H84.17v2.73H82.74V92.43h2.93A2.27,2.27,0,0,1,88.24,94.75Zm-2.8,1.19c.82,0,1.3-.4,1.3-1.16a1.14,1.14,0,0,0-1.28-1.21H84.17v2.37Z" transform="translate(-4.58 -3.05)"/><path class="b" d="M94.23,99.76H89.51V92.43h4.72v1.19H91V95.5H94v1.11H91v2h3.28Z" transform="translate(-4.58 -3.05)"/><path class="b" d="M96.5,97.68c0,.57.56,1.07,1.52,1.07s1.38-.41,1.38-1S99,97,98.28,96.79l-1.14-.27a2,2,0,0,1-1.86-2c0-1.43,1.23-2.22,2.74-2.22s2.7.86,2.72,2.18H99.38a1.21,1.21,0,0,0-1.37-1c-.78,0-1.28.37-1.28,1,0,.44.35.74,1,.88l1.14.27c1.08.23,2,.75,2,2.06s-1.14,2.3-2.91,2.3c-2.12,0-2.82-1.2-2.84-2.22Z" transform="translate(-4.58 -3.05)"/><path class="b" d="M103,97.68c0,.57.55,1.07,1.52,1.07s1.38-.41,1.38-1-.37-.78-1.13-.95l-1.13-.27a2,2,0,0,1-1.86-2c0-1.43,1.22-2.22,2.73-2.22s2.7.86,2.72,2.18h-1.36a1.2,1.2,0,0,0-1.36-1c-.78,0-1.28.37-1.28,1,0,.44.34.74,1,.88l1.14.27c1.09.23,2,.75,2,2.06s-1.14,2.3-2.9,2.3c-2.13,0-2.82-1.2-2.85-2.22Z" transform="translate(-4.58 -3.05)"/><path class="b" d="M108.23,95.65c0-2.08,1.2-3.36,3.15-3.36s3.14,1.29,3.14,3.36v.94a3.15,3.15,0,1,1-6.29,0Zm1.48.95c0,1.41.7,2.09,1.67,2.09s1.67-.68,1.67-2.09v-1c0-1.41-.7-2.14-1.67-2.14s-1.67.73-1.67,2.14Z" transform="translate(-4.58 -3.05)"/><path class="c" d="M131.31,138.84H46.69c-17.42,0-42.11-25.44-42.11-25.44H173.42S149.25,138.84,131.31,138.84Z" transform="translate(-4.58 -3.05)"/><path class="d" d="M33.35,95.19v-65H144.22V94.9c0,11.85-10.6,16.48-15.41,16.48H48.75C42,111.38,33.35,108.77,33.35,95.19Z" transform="translate(-4.58 -3.05)"/><path class="e" d="M144,68.56h5.6a18.06,18.06,0,1,0,0-36.11h-5.35" transform="translate(-4.58 -3.05)"/><path class="f" d="M79.48,22.5c1.32.61-4.5-3.05-4.5-6.07s4.5-3.74,4.5-7S76.21,4.94,75,4.3" transform="translate(-4.58 -3.05)"/><path class="f" d="M89.18,22.5c1.31.61-4.5-3.05-4.5-6.07s4.5-3.74,4.5-7-3.27-4.5-4.5-5.14" transform="translate(-4.58 -3.05)"/><path class="f" d="M98.88,22.5c1.31.61-4.5-3.05-4.5-6.07s4.5-3.74,4.5-7-3.28-4.5-4.5-5.14" transform="translate(-4.58 -3.05)"/></svg>