<svg xmlns="http://www.w3.org/2000/svg" width="168.84" height="135.8" viewBox="0 0 168.84 135.8"><defs><style>.a{fill:#b9dcdc;}.b{fill:#fff;}.c{fill:#e16414;}.d{fill:#333;}.e,.f,.g{fill:none;}.e,.f{stroke:#333;}.e{stroke-width:4.7px;}.f{stroke-width:9.5px;}.g{stroke:#cccbcb;stroke-linecap:round;stroke-width:2.5px;}</style></defs><title>coffeeeeeeeeee</title><rect class="a" x="30.21" y="63.54" width="108.42" height="16.29"/><path class="b" d="M49.29,78.3,47.35,71h1.54L50,76.2h0L51.38,71h1.26l1.3,5.24H54L55.13,71h1.54L54.73,78.3H53.39L52,73.21h0L50.63,78.3Z" transform="translate(-4.58 -3.05)"/><path class="b" d="M62,78.3V75.15H58.93V78.3H57.48V71h1.45v3H62V71h1.45V78.3Z" transform="translate(-4.58 -3.05)"/><path class="b" d="M65,78.3V71h1.45V78.3Z" transform="translate(-4.58 -3.05)"/><path class="b" d="M71,71a2.44,2.44,0,1,1,0,4.88H69.48V78.3H68V71ZM69.47,74.7h.87c1,0,1.62-.3,1.62-1.29a1.18,1.18,0,0,0-1.28-1.29H69.47Z" transform="translate(-4.58 -3.05)"/><path class="b" d="M77.39,71a2.44,2.44,0,1,1,0,4.88H75.91V78.3H74.46V71ZM75.9,74.7h.87c1,0,1.62-.3,1.62-1.29a1.18,1.18,0,0,0-1.28-1.29H75.9Z" transform="translate(-4.58 -3.05)"/><path class="b" d="M85.61,78.3H80.89V71h4.72v1.19H82.33V74h3.08v1.11H82.33v2h3.28Z" transform="translate(-4.58 -3.05)"/><path class="b" d="M89.62,71c2.22,0,3.28,1.33,3.28,3.65s-1.07,3.69-3.28,3.69H86.94V71Zm-1.23,6.15h1c1.22,0,2-.62,2-2.47,0-1.52-.53-2.49-2-2.49h-1Z" transform="translate(-4.58 -3.05)"/><path class="b" d="M97.41,75.07c0,1.38.58,2.14,1.61,2.14a1.37,1.37,0,0,0,1.47-1.41h1.4v.14A2.61,2.61,0,0,1,99,78.44c-2,0-3.07-1.29-3.07-3.38v-.84c0-2.1,1.12-3.4,3.07-3.4a2.63,2.63,0,0,1,2.88,2.58v.14h-1.4A1.41,1.41,0,0,0,99,72.05c-1,0-1.61.77-1.61,2.17Z" transform="translate(-4.58 -3.05)"/><path class="b" d="M108.61,73.28a2.14,2.14,0,0,1-1.34,2.06l1.48,3h-1.62l-1.29-2.74h-1.3V78.3h-1.43V71H106A2.28,2.28,0,0,1,108.61,73.28Zm-2.81,1.19c.82,0,1.31-.4,1.31-1.16a1.16,1.16,0,0,0-1.29-1.21h-1.28v2.37Z" transform="translate(-4.58 -3.05)"/><path class="b" d="M114.6,78.3h-4.72V71h4.72v1.19h-3.29V74h3.09v1.11h-3.09v2h3.29Z" transform="translate(-4.58 -3.05)"/><path class="b" d="M115.23,78.3,117.69,71h1.7l2.45,7.34h-1.55l-.57-1.89h-2.44l-.58,1.89Zm3.24-5.93-.89,3h1.85l-.89-3Z" transform="translate(-4.58 -3.05)"/><path class="b" d="M122.72,78.3V71h1.47l2.09,4.74h0L128.42,71h1.47V78.3h-1.31V73.45h-.06l-1.75,3.93h-.94l-1.76-3.93H124V78.3Z" transform="translate(-4.58 -3.05)"/><polygon class="c" points="129.48 106.95 35.81 106.95 30.21 99.98 30.21 79.55 138.63 79.55 138.63 96.74 129.48 106.95"/><path class="b" d="M68.5,99.32H63.78V92H68.5v1.19H65.22v1.88H68.3v1.11H65.22v2H68.5Z" transform="translate(-4.58 -3.05)"/><path class="b" d="M70.77,97.24c0,.57.56,1.07,1.52,1.07s1.38-.41,1.38-1-.37-.78-1.13-1l-1.13-.26a2,2,0,0,1-1.86-2c0-1.43,1.23-2.22,2.74-2.22S75,92.7,75,94H73.64c0-.54-.48-1-1.36-1s-1.28.37-1.28,1c0,.44.35.75,1,.89l1.14.26c1.08.24,2,.76,2,2.07s-1.14,2.3-2.91,2.3c-2.13,0-2.82-1.2-2.84-2.22Z" transform="translate(-4.58 -3.05)"/><path class="b" d="M79.25,92a2.44,2.44,0,1,1,0,4.87H77.77v2.46H76.31V92Zm-1.49,3.73h.87c1,0,1.62-.29,1.62-1.29A1.18,1.18,0,0,0,79,93.14H77.76Z" transform="translate(-4.58 -3.05)"/><path class="b" d="M88.24,94.31a2.16,2.16,0,0,1-1.33,2.06l1.47,2.95H86.76l-1.28-2.73H84.17v2.73H82.74V92h2.93A2.26,2.26,0,0,1,88.24,94.31Zm-2.8,1.19c.82,0,1.3-.41,1.3-1.16a1.14,1.14,0,0,0-1.28-1.21H84.17V95.5Z" transform="translate(-4.58 -3.05)"/><path class="b" d="M94.23,99.32H89.51V92h4.72v1.19H91v1.88H94v1.11H91v2h3.28Z" transform="translate(-4.58 -3.05)"/><path class="b" d="M96.5,97.24c0,.57.56,1.07,1.52,1.07s1.38-.41,1.38-1-.37-.78-1.12-1l-1.14-.26a2,2,0,0,1-1.86-2c0-1.43,1.23-2.22,2.74-2.22s2.7.86,2.72,2.17H99.38c0-.54-.49-1-1.37-1s-1.27.37-1.27,1c0,.44.34.75,1,.89l1.14.26c1.08.24,2,.76,2,2.07s-1.14,2.3-2.91,2.3c-2.12,0-2.82-1.2-2.84-2.22Z" transform="translate(-4.58 -3.05)"/><path class="b" d="M103,97.24c.05.57.56,1.07,1.52,1.07s1.38-.41,1.38-1-.37-.78-1.13-1l-1.13-.26a2,2,0,0,1-1.86-2c0-1.43,1.22-2.22,2.73-2.22s2.7.86,2.73,2.17h-1.37c0-.54-.48-1-1.36-1s-1.28.37-1.28,1c0,.44.34.75,1,.89l1.14.26c1.09.24,2,.76,2,2.07s-1.14,2.3-2.9,2.3c-2.13,0-2.82-1.2-2.84-2.22Z" transform="translate(-4.58 -3.05)"/><path class="b" d="M108.23,95.21c0-2.08,1.2-3.36,3.15-3.36s3.14,1.29,3.14,3.36v.94a3.15,3.15,0,1,1-6.29,0Zm1.48,1c0,1.41.7,2.09,1.67,2.09s1.67-.68,1.67-2.09v-1c0-1.41-.7-2.14-1.67-2.14s-1.67.73-1.67,2.14Z" transform="translate(-4.58 -3.05)"/><path class="d" d="M131.31,138.84H46.69c-17.42,0-42.11-25.44-42.11-25.44H173.42S149.25,138.84,131.31,138.84Z" transform="translate(-4.58 -3.05)"/><path class="e" d="M33.35,95.19v-65H144.22V94.9c0,11.85-10.6,16.48-15.41,16.48H48.75C42,111.38,33.35,108.77,33.35,95.19Z" transform="translate(-4.58 -3.05)"/><path class="f" d="M144,68.56h5.6a18.06,18.06,0,1,0,0-36.11h-5.35" transform="translate(-4.58 -3.05)"/><path class="g" d="M79.48,22.5c1.32.61-4.5-3.05-4.5-6.07s4.5-3.74,4.5-7S76.21,4.94,75,4.3" transform="translate(-4.58 -3.05)"/><path class="g" d="M89.18,22.5c1.31.61-4.5-3.05-4.5-6.07s4.5-3.74,4.5-7-3.27-4.5-4.5-5.14" transform="translate(-4.58 -3.05)"/><path class="g" d="M98.88,22.5c1.31.61-4.5-3.05-4.5-6.07s4.5-3.74,4.5-7-3.28-4.5-4.5-5.14" transform="translate(-4.58 -3.05)"/></svg>