<svg xmlns="http://www.w3.org/2000/svg" width="168.84" height="135.8" viewBox="0 0 168.84 135.8"><defs><style>.a{fill:#b4be8c;}.b{fill:#e16414;}.c{fill:#fff;}.d{fill:#333;}.e,.f,.g{fill:none;}.e,.f{stroke:#333;}.e{stroke-width:4.7px;}.f{stroke-width:9.5px;}.g{stroke:#cccbcb;stroke-linecap:round;stroke-width:2.5px;}</style></defs><title>coffeeeeeeeeee</title><rect class="a" x="30.21" y="44.7" width="108.42" height="35.13"/><polygon class="b" points="129.48 106.95 35.81 106.95 30.21 99.98 30.21 79.55 138.63 79.55 138.63 96.74 129.48 106.95"/><path class="c" d="M54.11,67.21c0,.57.56,1.08,1.52,1.08s1.38-.41,1.38-1-.37-.78-1.13-1l-1.13-.26a2,2,0,0,1-1.86-2c0-1.43,1.22-2.22,2.73-2.22s2.71.86,2.73,2.18H57a1.2,1.2,0,0,0-1.36-1c-.78,0-1.28.37-1.28,1,0,.44.34.74,1,.89l1.14.26c1.09.24,2,.76,2,2.07s-1.13,2.3-2.9,2.3c-2.13,0-2.82-1.21-2.84-2.23Z" transform="translate(-4.58 -3.05)"/><path class="c" d="M61,69.3V63.18H59V62h5.62v1.22H62.49V69.3Z" transform="translate(-4.58 -3.05)"/><path class="c" d="M70.15,69.3H65.43V62h4.72v1.19H66.87V65H70v1.11H66.87v2h3.28Z" transform="translate(-4.58 -3.05)"/><path class="c" d="M70.79,69.3,73.25,62H75l2.44,7.34H75.85l-.57-1.89H72.83l-.58,1.89ZM74,63.37l-.9,3H75l-.89-3Z" transform="translate(-4.58 -3.05)"/><path class="c" d="M78.27,69.3V62h1.48l2.09,4.74h0L84,62h1.46V69.3h-1.3V64.45h-.06l-1.75,3.93h-1l-1.75-3.93h-.06V69.3Z" transform="translate(-4.58 -3.05)"/><path class="c" d="M91.74,69.3H87V62h4.72v1.19H88.46V65h3.08v1.11H88.46v2h3.28Z" transform="translate(-4.58 -3.05)"/><path class="c" d="M95.75,62C98,62,99,63.29,99,65.61S98,69.3,95.75,69.3H93.07V62Zm-1.23,6.15h1c1.22,0,2-.62,2-2.47,0-1.52-.53-2.49-2-2.49h-1Z" transform="translate(-4.58 -3.05)"/><path class="c" d="M102.39,69.3V62h1.47L106,66.7h0l2.1-4.74h1.47V69.3h-1.31V64.45h-.06l-1.75,3.93h-1l-1.75-3.93h-.06V69.3Z" transform="translate(-4.58 -3.05)"/><path class="c" d="M111.13,69.3V62h1.45V69.3Z" transform="translate(-4.58 -3.05)"/><path class="c" d="M118.7,69.3h-4.56V62h1.45v6.1h3.11Z" transform="translate(-4.58 -3.05)"/><path class="c" d="M122.9,65.12l2.73,4.18h-1.74l-2.06-3.21-.75.85V69.3h-1.45V62h1.45v3.29h.07L123.92,62h1.6Z" transform="translate(-4.58 -3.05)"/><path class="c" d="M68.5,99.32H63.78V92H68.5v1.19H65.22v1.88H68.3v1.11H65.22v2H68.5Z" transform="translate(-4.58 -3.05)"/><path class="c" d="M70.77,97.24c0,.57.56,1.07,1.52,1.07s1.38-.41,1.38-1-.37-.78-1.13-1l-1.13-.26a2,2,0,0,1-1.86-2c0-1.43,1.23-2.22,2.74-2.22S75,92.7,75,94H73.64c0-.54-.48-1-1.36-1s-1.28.37-1.28,1c0,.44.35.75,1,.89l1.13.26c1.09.24,2,.76,2,2.07s-1.14,2.3-2.91,2.3c-2.13,0-2.82-1.2-2.84-2.22Z" transform="translate(-4.58 -3.05)"/><path class="c" d="M79.25,92a2.44,2.44,0,1,1,0,4.87H77.76v2.46H76.31V92Zm-1.49,3.73h.87c1,0,1.62-.29,1.62-1.29A1.18,1.18,0,0,0,79,93.14H77.76Z" transform="translate(-4.58 -3.05)"/><path class="c" d="M88.24,94.31a2.16,2.16,0,0,1-1.33,2.06l1.47,2.95H86.76l-1.28-2.73H84.17v2.73H82.74V92h2.93A2.26,2.26,0,0,1,88.24,94.31Zm-2.8,1.19c.82,0,1.3-.41,1.3-1.16a1.14,1.14,0,0,0-1.28-1.21H84.17V95.5Z" transform="translate(-4.58 -3.05)"/><path class="c" d="M94.23,99.32H89.51V92h4.72v1.19H91v1.88H94v1.11H91v2h3.28Z" transform="translate(-4.58 -3.05)"/><path class="c" d="M96.5,97.24c0,.57.56,1.07,1.52,1.07s1.38-.41,1.38-1-.37-.78-1.12-1l-1.14-.26a2,2,0,0,1-1.86-2c0-1.43,1.23-2.22,2.74-2.22s2.7.86,2.72,2.17H99.38c0-.54-.49-1-1.37-1s-1.28.37-1.28,1c0,.44.35.75,1,.89l1.14.26c1.08.24,2,.76,2,2.07s-1.14,2.3-2.91,2.3c-2.12,0-2.82-1.2-2.84-2.22Z" transform="translate(-4.58 -3.05)"/><path class="c" d="M103,97.24c.05.57.56,1.07,1.52,1.07s1.38-.41,1.38-1-.37-.78-1.13-1l-1.13-.26a2,2,0,0,1-1.86-2c0-1.43,1.22-2.22,2.73-2.22s2.7.86,2.73,2.17h-1.37c0-.54-.48-1-1.36-1s-1.28.37-1.28,1c0,.44.34.75,1,.89l1.14.26c1.09.24,2,.76,2,2.07s-1.14,2.3-2.9,2.3c-2.13,0-2.82-1.2-2.85-2.22Z" transform="translate(-4.58 -3.05)"/><path class="c" d="M108.23,95.21c0-2.08,1.2-3.36,3.15-3.36s3.14,1.29,3.14,3.36v.94a3.15,3.15,0,1,1-6.29,0Zm1.48,1c0,1.41.7,2.09,1.67,2.09s1.67-.68,1.67-2.09v-1c0-1.41-.7-2.14-1.67-2.14s-1.67.73-1.67,2.14Z" transform="translate(-4.58 -3.05)"/><path class="d" d="M131.31,138.84H46.69c-17.42,0-42.11-25.44-42.11-25.44H173.42S149.25,138.84,131.31,138.84Z" transform="translate(-4.58 -3.05)"/><path class="e" d="M33.35,95.19v-65H144.22V94.9c0,11.85-10.6,16.48-15.41,16.48H48.75C42,111.38,33.35,108.77,33.35,95.19Z" transform="translate(-4.58 -3.05)"/><path class="f" d="M144,68.56h5.6a18.06,18.06,0,1,0,0-36.11h-5.35" transform="translate(-4.58 -3.05)"/><path class="g" d="M79.48,22.5c1.32.61-4.5-3.05-4.5-6.07s4.5-3.74,4.5-7S76.21,4.94,75,4.3" transform="translate(-4.58 -3.05)"/><path class="g" d="M89.18,22.5c1.31.61-4.5-3.05-4.5-6.07s4.5-3.74,4.5-7-3.27-4.5-4.5-5.14" transform="translate(-4.58 -3.05)"/><path class="g" d="M98.88,22.5c1.31.61-4.5-3.05-4.5-6.07s4.5-3.74,4.5-7-3.28-4.5-4.5-5.14" transform="translate(-4.58 -3.05)"/></svg>